<svg width="48" height="48" viewBox="0 0 48 48" fill="none" xmlns="http://www.w3.org/2000/svg">
<path fill-rule="evenodd" clip-rule="evenodd" d="M43 24C43 19.0934 40.0552 14.8745 35.8365 13.0145C34.8904 7.33191 29.951 3 24 3C18.049 3 13.1096 7.33191 12.1635 13.0145C7.94482 14.8745 5 19.0934 5 24V32C5 38.6274 10.3726 44 17 44H31C37.6274 44 43 38.6274 43 32V24ZM24 9C21.6492 9 19.6 10.6 19.0299 12.8806L17.9403 17.2389C16.9547 21.1812 19.9364 25 24 25C28.0636 25 31.0453 21.1812 30.0597 17.2389L28.9701 12.8806C28.4 10.6 26.3508 9 24 9Z" fill="black"/>
</svg>
